<svg version="1.2" xmlns="http://www.w3.org/2000/svg" viewBox="0 0 228 49" width="228" height="49">
	<title>logo2-svg</title>
	<defs>
		<linearGradient id="g1" x1="44.8" y1="13.6" x2="62.3" y2="31.4" gradientUnits="userSpaceOnUse">
			<stop offset=".21" stop-color="#f15a24"/>
			<stop offset=".684" stop-color="#fbb03b"/>
		</linearGradient>
		<linearGradient id="g2" x1="31.2" y1="35.4" x2="13.7" y2="17.6" gradientUnits="userSpaceOnUse">
			<stop offset=".21" stop-color="#ed1e79"/>
			<stop offset=".893" stop-color="#522785"/>
		</linearGradient>
	</defs>
	<style>
		.s0 { fill: url(#g1) } 
		.s1 { fill: url(#g2) } 
		.s2 { fill: #29abe2 } 
		.s3 { fill: #161617 } 
		.s4 { fill: #000000 } 
	</style>
	<path id="Layer" class="s0" d="m51.4 12c-2.9 0-6.1 1.5-9.5 4.5-1.5 1.4-2.9 2.9-3.9 4.1q0 0 0 0.1v-0.1c0 0 1.6 1.9 3.4 3.8 1-1.2 2.3-2.8 3.9-4.2 3-2.7 5-3.2 6.1-3.2 4.2 0 7.5 3.3 7.5 7.5 0 4.1-3.4 7.5-7.5 7.5q-0.3 0-0.8-0.1c1.2 0.6 2.6 0.9 3.8 0.9 7.7 0 9.2-5 9.3-5.4q0.3-1.4 0.3-2.9c0-6.9-5.7-12.5-12.6-12.5z"/>
	<path id="Layer" class="s1" d="m24.6 37c2.9 0 6.1-1.5 9.5-4.5 1.5-1.4 2.9-2.9 3.9-4.1q0 0 0-0.1v0.1c0 0-1.6-1.9-3.4-3.8-1 1.2-2.3 2.8-3.9 4.2-3 2.7-5 3.2-6.1 3.2-4.2 0-7.5-3.4-7.5-7.5 0-4.1 3.4-7.5 7.5-7.5q0.3 0 0.8 0.1c-1.2-0.6-2.6-0.9-3.8-0.9-7.7 0-9.1 5-9.3 5.4q-0.3 1.4-0.3 2.9c0 6.9 5.7 12.5 12.6 12.5z"/>
	<path id="Layer" class="s2" d="m54.4 32.7c-3.9-0.1-8-3.2-8.8-4-2.2-2-7.1-7.5-7.5-7.9-3.7-4.2-8.6-8.8-13.5-8.8-5.9 0-10.9 4.1-12.3 9.6 0.1-0.4 2.1-5.5 9.3-5.4 3.9 0.1 8 3.3 8.8 4.1 2.2 2 7.1 7.5 7.5 7.9 3.7 4.2 8.6 8.8 13.5 8.8 5.9 0 10.9-4.1 12.3-9.6-0.2 0.4-2.1 5.5-9.3 5.3z"/>
	<filter id="f0">
		<feFlood flood-color="#ffffff" flood-opacity="1" />
		<feBlend mode="normal" in2="SourceGraphic"/>
		<feComposite in2="SourceAlpha" operator="in" />
	</filter>
	<g id="Folder 1" filter="url(#f0)">
		<path id="Layer" class="s3" d="m73 33.8c0.3 0 0.5-0.2 0.5-0.5v-6.6c0-0.3-0.2-0.5-0.5-0.5h-0.5c-0.3 0-0.5 0.2-0.5 0.5v6.6c0 0.3 0.2 0.5 0.5 0.5z"/>
		<path id="Layer" class="s3" d="m83.2 33.8c0.3 0 0.5-0.2 0.5-0.5v-6.6c0-0.3-0.2-0.5-0.5-0.5h-0.5c-0.3 0-0.5 0.2-0.5 0.5v4.5l-2.9-4.6c-0.2-0.3-0.5-0.4-0.9-0.4h-0.8c-0.3 0-0.5 0.2-0.5 0.5v6.6c0 0.3 0.2 0.5 0.5 0.5h0.5c0.3 0 0.5-0.2 0.5-0.5v-4.9l3.4 5.2q0.1 0.2 0.4 0.2z"/>
		<path id="Layer" class="s3" d="m92.5 27.6c0.2 0 0.5-0.2 0.5-0.5v-0.4c0-0.3-0.3-0.5-0.5-0.5h-5.5c-0.2 0-0.5 0.2-0.5 0.5v0.4c0 0.3 0.3 0.5 0.5 0.5h2v5.7c0 0.3 0.2 0.5 0.5 0.5h0.5c0.3 0 0.5-0.2 0.5-0.5v-5.7z"/>
		<path id="Layer" class="s3" d="m100.1 33.8c0.3 0 0.5-0.2 0.5-0.5v-0.4c0-0.3-0.2-0.5-0.5-0.5h-2.8v-1.8h2.5c0.3 0 0.5-0.2 0.5-0.5v-0.3c0-0.3-0.2-0.5-0.5-0.5h-2.5v-1.7h2.8c0.3 0 0.5-0.3 0.5-0.5v-0.4c0-0.3-0.2-0.5-0.5-0.5h-3.8c-0.3 0-0.5 0.2-0.5 0.5v6.6c0 0.3 0.2 0.5 0.5 0.5z"/>
		<path id="Layer" fill-rule="evenodd" class="s3" d="m106.2 30.9h-0.8v2.4c0 0.3-0.2 0.5-0.5 0.5h-0.5c-0.3 0-0.5-0.2-0.5-0.5v-6.6c0-0.3 0.2-0.5 0.5-0.5h2.5c1.5 0 2.5 1 2.5 2.3 0 1.1-0.7 1.9-1.7 2.2l1.3 2.4c0.2 0.3-0.1 0.7-0.5 0.7h-0.5c-0.2 0-0.4-0.1-0.5-0.2zm0.5-1.3c0.8 0 1.2-0.5 1.2-1.1 0-0.6-0.4-1.1-1.2-1.1h-1.2v2.2z"/>
		<path id="Layer" class="s3" d="m118.6 33.8c0.3 0 0.5-0.2 0.5-0.5v-6.6c0-0.3-0.2-0.5-0.5-0.5h-0.5c-0.3 0-0.5 0.2-0.5 0.5v4.5l-2.9-4.6c-0.2-0.3-0.5-0.4-0.9-0.4h-0.8c-0.3 0-0.5 0.2-0.5 0.5v6.6c0 0.3 0.2 0.5 0.5 0.5h0.5c0.3 0 0.5-0.2 0.5-0.5v-4.9l3.4 5.2q0.1 0.2 0.4 0.2z"/>
		<path id="Layer" class="s3" d="m127 33.8c0.3 0 0.5-0.2 0.5-0.5v-0.4c0-0.3-0.2-0.5-0.5-0.5h-2.8v-1.8h2.5c0.3 0 0.5-0.2 0.5-0.5v-0.3c0-0.3-0.2-0.5-0.5-0.5h-2.5v-1.7h2.8c0.3 0 0.5-0.3 0.5-0.5v-0.4c0-0.3-0.2-0.5-0.5-0.5h-3.8c-0.3 0-0.5 0.2-0.5 0.5v6.6c0 0.3 0.2 0.5 0.5 0.5z"/>
		<path id="Layer" class="s3" d="m135.9 27.6c0.3 0 0.5-0.2 0.5-0.5v-0.4c0-0.3-0.2-0.5-0.5-0.5h-5.4c-0.3 0-0.5 0.2-0.5 0.5v0.4c0 0.3 0.2 0.5 0.5 0.5h2v5.7c0 0.3 0.2 0.5 0.5 0.5h0.5c0.3 0 0.5-0.2 0.5-0.5v-5.7z"/>
		<path id="Layer" class="s3" d="m146.8 34c2.2 0 3.3-1.4 3.6-2.6l-1.4-0.4c-0.2 0.7-0.9 1.5-2.2 1.5-1.2 0-2.4-0.9-2.4-2.5 0-1.7 1.2-2.6 2.4-2.6 1.3 0 1.9 0.8 2.1 1.6l1.5-0.5c-0.4-1.2-1.5-2.5-3.6-2.5-2.1 0-3.9 1.6-3.9 4 0 2.4 1.8 4 3.9 4z"/>
		<path id="Layer" fill-rule="evenodd" class="s3" d="m156.8 26c2.2 0 4 1.5 4 4 0 2.5-1.8 4-4 4-2.1 0-3.9-1.5-3.9-4 0-2.5 1.8-4 3.9-4zm0 6.5c1.2 0 2.5-0.8 2.5-2.5 0-1.7-1.3-2.6-2.5-2.6-1.1 0-2.4 0.9-2.4 2.6 0 1.7 1.3 2.5 2.4 2.5z"/>
		<path id="Layer" class="s3" d="m172.1 33.8c0.3 0 0.5-0.2 0.5-0.5v-6.6c0-0.3-0.2-0.5-0.5-0.5h-1.2c-0.2 0-0.4 0.1-0.5 0.3l-2.2 5.2-2.1-5.2c-0.1-0.2-0.3-0.3-0.5-0.3h-1.2c-0.2 0-0.5 0.2-0.5 0.5v6.6c0 0.3 0.3 0.5 0.5 0.5h0.5c0.3 0 0.5-0.2 0.5-0.5v-4.8l2.1 5c0.1 0.2 0.2 0.3 0.4 0.3h0.6c0.2 0 0.4-0.1 0.5-0.3l2.1-5v4.8c0 0.3 0.2 0.5 0.5 0.5z"/>
		<path id="Layer" fill-rule="evenodd" class="s3" d="m177.6 30.9v2.4c0 0.3-0.2 0.5-0.5 0.5h-0.5c-0.2 0-0.5-0.2-0.5-0.5v-6.6c0-0.3 0.3-0.5 0.5-0.5h2.4c1.6 0 2.6 1 2.6 2.4 0 1.3-1 2.3-2.6 2.3zm1.2-1.2c0.8 0 1.3-0.5 1.3-1.1 0-0.7-0.5-1.1-1.3-1.1h-1.2v2.2z"/>
		<path id="Layer" class="s3" d="m187.4 34c1.7 0 3-1 3-2.9v-4.4c0-0.3-0.2-0.5-0.5-0.5h-0.5c-0.3 0-0.5 0.2-0.5 0.5v4.3c0 1-0.6 1.5-1.5 1.5-0.9 0-1.5-0.5-1.5-1.5v-4.3c0-0.3-0.2-0.5-0.5-0.5h-0.5c-0.2 0-0.5 0.2-0.5 0.5v4.4c0 1.9 1.4 2.9 3 2.9z"/>
		<path id="Layer" class="s3" d="m199.1 27.6c0.3 0 0.5-0.2 0.5-0.5v-0.4c0-0.3-0.2-0.5-0.5-0.5h-5.4c-0.3 0-0.5 0.2-0.5 0.5v0.4c0 0.3 0.2 0.5 0.5 0.5h1.9v5.7c0 0.3 0.2 0.5 0.5 0.5h0.5c0.3 0 0.5-0.2 0.5-0.5v-5.7z"/>
		<path id="Layer" class="s3" d="m206.8 33.8c0.2 0 0.5-0.2 0.5-0.5v-0.4c0-0.3-0.3-0.5-0.5-0.5h-2.9v-1.8h2.5c0.3 0 0.5-0.2 0.5-0.5v-0.3c0-0.3-0.2-0.5-0.5-0.5h-2.5v-1.7h2.9c0.2 0 0.5-0.3 0.5-0.5v-0.4c0-0.3-0.3-0.5-0.5-0.5h-3.9c-0.3 0-0.5 0.2-0.5 0.5v6.6c0 0.3 0.2 0.5 0.5 0.5z"/>
		<path id="Layer" fill-rule="evenodd" class="s3" d="m212.8 30.9h-0.8v2.4c0 0.3-0.2 0.5-0.5 0.5h-0.5c-0.3 0-0.5-0.2-0.5-0.5v-7.1h3c1.5 0 2.5 1 2.5 2.3 0 1.1-0.6 1.9-1.7 2.2l1.3 2.4c0.2 0.3-0.1 0.7-0.4 0.7h-0.6c-0.2 0-0.3-0.1-0.4-0.2zm0.4-1.3c0.8 0 1.2-0.5 1.2-1.1 0-0.6-0.4-1.1-1.2-1.1h-1.2v2.2z"/>
		<path id="Layer" fill-rule="evenodd" class="s4" d="m73 21v-5.2h-1.7v-0.5c1-0.1 1.6-0.7 1.8-1.4h0.8v7.1zm3-0.9c-0.5-0.7-0.6-1.7-0.6-2.7 0-0.9 0.1-1.9 0.6-2.6 0.5-0.7 1.2-1.1 2.1-1.1 1 0 1.7 0.4 2.1 1.1 0.5 0.7 0.7 1.7 0.7 2.6 0 1-0.2 2-0.7 2.7-0.4 0.6-1.1 1.1-2.1 1.1-0.9 0-1.6-0.5-2.1-1.1zm3.3-0.3c0.5-0.5 0.7-1.3 0.7-2.4 0-1-0.2-1.9-0.7-2.4-0.3-0.3-0.6-0.5-1.2-0.5-0.5 0-0.9 0.2-1.2 0.5-0.4 0.5-0.6 1.4-0.6 2.4 0 1.1 0.2 1.9 0.6 2.4 0.3 0.3 0.7 0.5 1.2 0.5 0.6 0 0.9-0.2 1.2-0.5zm3.5 0.3c-0.5-0.7-0.7-1.7-0.7-2.7 0-0.9 0.2-1.9 0.7-2.6 0.4-0.7 1.1-1.1 2.1-1.1 0.9 0 1.6 0.4 2.1 1.1 0.5 0.7 0.6 1.7 0.6 2.6 0 1-0.1 2-0.6 2.7-0.5 0.6-1.2 1.1-2.1 1.1-1 0-1.7-0.5-2.1-1.1zm3.3-0.3c0.4-0.5 0.6-1.3 0.6-2.4 0-1-0.2-1.9-0.6-2.4-0.3-0.3-0.7-0.5-1.2-0.5-0.6 0-0.9 0.2-1.2 0.5-0.5 0.5-0.7 1.4-0.7 2.4 0 1.1 0.2 1.9 0.7 2.4 0.3 0.3 0.6 0.5 1.2 0.5 0.5 0 0.9-0.2 1.2-0.5zm4.2-6c1 0 1.7 0.7 1.7 1.7 0 0.9-0.7 1.7-1.7 1.7-0.9 0-1.7-0.8-1.7-1.7 0-1 0.8-1.7 1.7-1.7zm0 2.7c0.6 0 1-0.5 1-1 0-0.6-0.4-1-1-1-0.5 0-0.9 0.4-0.9 1 0 0.5 0.4 1 0.9 1zm4.4 1.1c0.9 0 1.7 0.8 1.7 1.7 0 1-0.8 1.8-1.7 1.8-1 0-1.7-0.8-1.7-1.8 0-0.9 0.7-1.7 1.7-1.7zm0 2.7c0.5 0 0.9-0.4 0.9-1 0-0.5-0.4-0.9-0.9-0.9-0.6 0-1 0.4-1 0.9 0 0.6 0.4 1 1 1zm-5.2 0.7l5.1-7.1h0.9l-5.2 7.1zm15.9-2.6c0 1.6-1.1 2.8-2.6 2.8-1.5 0-2.7-1.2-2.7-2.8 0-1.7 1.2-2.8 2.7-2.8 1.5 0 2.6 1.1 2.6 2.8zm-4.4 0c0 1.2 0.8 2 1.8 2 0.9 0 1.7-0.8 1.7-2 0-1.3-0.8-2-1.7-2-1 0-1.8 0.7-1.8 2zm6.7 2.6h-0.9v-5.3h0.8v0.8c0.4-0.6 1-0.9 1.7-0.9 1.3 0 1.9 0.9 1.9 2v3.4h-0.9v-3.2c0-0.8-0.4-1.4-1.3-1.4-0.9 0-1.3 0.7-1.3 1.5zm5-2.8v-0.7h2.9v0.7zm5.1 0.2c0 1.2 0.8 2 1.7 2 1 0 1.5-0.7 1.6-1.2l0.8 0.3c-0.3 0.8-1 1.7-2.4 1.7-1.5 0-2.6-1.2-2.6-2.8 0-1.7 1.1-2.8 2.6-2.8 1.4 0 2.1 0.8 2.3 1.6l-0.8 0.4c-0.1-0.6-0.5-1.2-1.5-1.2-0.9 0-1.7 0.7-1.7 2zm6.2 2.6h-0.9v-8h0.9v3.4c0.4-0.5 1-0.8 1.7-0.8 1.2 0 1.8 0.9 1.8 2v3.4h-0.8v-3.2c0-0.8-0.4-1.4-1.4-1.4-0.8 0-1.3 0.6-1.3 1.5zm6.4-3l1.4-0.2c0.4-0.1 0.5-0.2 0.5-0.5 0-0.6-0.4-1-1.3-1-0.7 0-1.2 0.4-1.3 1.1l-0.8-0.2c0.1-1 1-1.7 2.1-1.7 1.5 0 2.2 0.9 2.2 1.9v2.7c0 0.4 0 0.7 0 0.9h-0.8c-0.1-0.2-0.1-0.4-0.1-0.8-0.2 0.4-0.8 0.9-1.8 0.9-1 0-1.7-0.7-1.7-1.5 0-1 0.7-1.5 1.6-1.6zm1.9 0.7v-0.3l-1.7 0.2c-0.6 0.1-0.9 0.4-0.9 0.9 0 0.4 0.3 0.9 1 0.9 0.9 0 1.6-0.5 1.6-1.7zm2.5 2.3v-5.3h0.9v5.3zm0.4-8.1c0.4 0 0.7 0.3 0.7 0.7 0 0.4-0.3 0.7-0.7 0.7-0.3 0-0.6-0.3-0.6-0.7 0-0.4 0.3-0.7 0.6-0.7zm3.1 8.1h-0.9v-5.3h0.8v0.8c0.4-0.6 1-1 1.7-1 1.3 0 1.9 0.9 1.9 2.1v3.4h-0.9v-3.3c0-0.8-0.4-1.4-1.3-1.4-0.9 0-1.3 0.7-1.3 1.5z"/>
	</g>
</svg>